<svg width="393" height="393" viewBox="0 0 393 393" fill="none" xmlns="http://www.w3.org/2000/svg">
<path d="M144 367.625C180.244 367.625 209.625 338.244 209.625 302C209.625 265.756 180.244 236.375 144 236.375C107.756 236.375 78.375 265.756 78.375 302C78.375 338.244 107.756 367.625 144 367.625Z" fill="#4BC190"/>
<path opacity="0.3" d="M144 354.5C172.995 354.5 196.5 330.995 196.5 302C196.5 273.005 172.995 249.5 144 249.5C115.005 249.5 91.5 273.005 91.5 302C91.5 330.995 115.005 354.5 144 354.5Z" fill="#356CB6"/>
<path d="M173.531 282.312L144 311.844L114.469 282.312L140.905 249.314C141.311 248.907 141.794 248.585 142.325 248.364C142.856 248.144 143.425 248.031 144 248.031C144.575 248.031 145.144 248.144 145.675 248.364C146.206 248.585 146.689 248.907 147.095 249.314L173.531 282.312Z" fill="white"/>
<path opacity="0.1" d="M144.788 248.111L144 249.5L159.312 289.969L164.234 291.609L173.531 282.313L147.095 249.314C146.466 248.688 145.661 248.269 144.788 248.111Z" fill="#393C54"/>
<path opacity="0.1" d="M128.688 289.969L160.953 294.891L173.531 282.313L147.095 249.314C146.586 248.799 145.953 248.423 145.258 248.22L144 249.5L128.688 289.969Z" fill="#393C54"/>
<path d="M144 282.312L128.688 288.875L114.469 282.312V360.603C123.629 365.219 133.743 367.623 144 367.623C154.257 367.623 164.371 365.219 173.531 360.603V282.312L159.312 288.875L144 282.312Z" fill="#F2BC0F"/>
<path d="M128.688 288.875L114.469 282.312V360.603C128.329 367.592 144.22 369.437 159.312 365.809V288.875L144 282.312L128.688 288.875Z" fill="#F8DC25"/>
<path opacity="0.5" d="M114.469 360.603C118.991 362.883 123.762 364.631 128.688 365.809V288.875L114.469 282.312V360.603Z" fill="white"/>
<path d="M150.748 253.875L147.095 249.314C146.689 248.907 146.206 248.585 145.675 248.364C145.144 248.144 144.575 248.031 144 248.031C143.425 248.031 142.856 248.144 142.325 248.364C141.794 248.585 141.311 248.907 140.905 249.314L137.252 253.875H150.748Z" fill="#515570"/>
<path opacity="0.2" d="M129.781 316.984C132.85 316.984 135.338 315.589 135.338 313.867C135.338 312.146 132.85 310.75 129.781 310.75C126.713 310.75 124.225 312.146 124.225 313.867C124.225 315.589 126.713 316.984 129.781 316.984Z" fill="#F85565"/>
<path opacity="0.2" d="M158.219 316.984C161.287 316.984 163.775 315.589 163.775 313.867C163.775 312.146 161.287 310.75 158.219 310.75C155.15 310.75 152.663 312.146 152.663 313.867C152.663 315.589 155.15 316.984 158.219 316.984Z" fill="#F85565"/>
<path d="M158.481 301.727C158.061 301.306 157.556 300.978 157.001 300.763C156.446 300.549 155.852 300.453 155.258 300.482C154.664 300.511 154.082 300.664 153.55 300.931C153.018 301.198 152.548 301.573 152.17 302.033C151.506 302.886 151.18 303.954 151.257 305.033C151.334 306.111 151.807 307.123 152.586 307.873L157.77 313.058C157.959 313.246 158.215 313.352 158.481 313.352C158.748 313.352 159.004 313.246 159.192 313.058L164.377 307.873C165.163 307.12 165.64 306.101 165.715 305.015C165.789 303.929 165.457 302.854 164.781 302C164.402 301.543 163.931 301.17 163.399 300.906C162.867 300.642 162.285 300.492 161.692 300.467C161.098 300.441 160.506 300.54 159.953 300.757C159.4 300.974 158.899 301.304 158.481 301.727Z" fill="#F85565"/>
<path d="M129.519 301.727C129.101 301.304 128.6 300.974 128.047 300.757C127.494 300.54 126.902 300.441 126.308 300.467C125.715 300.492 125.133 300.642 124.601 300.906C124.069 301.17 123.598 301.543 123.219 302C122.553 302.852 122.225 303.92 122.3 304.998C122.375 306.077 122.846 307.089 123.623 307.841L128.808 313.025C128.996 313.213 129.252 313.319 129.519 313.319C129.785 313.319 130.041 313.213 130.23 313.025L135.414 307.841C136.193 307.091 136.666 306.079 136.743 305C136.82 303.922 136.494 302.853 135.83 302C135.449 301.543 134.977 301.17 134.444 300.906C133.911 300.642 133.329 300.492 132.735 300.466C132.14 300.44 131.547 300.539 130.993 300.756C130.44 300.973 129.937 301.304 129.519 301.727Z" fill="#F85565"/>
<path opacity="0.7" d="M136.606 329.934V337.361" stroke="white" stroke-width="2" stroke-miterlimit="10" stroke-linecap="round"/>
<path opacity="0.7" d="M134.419 325.559V335.173" stroke="white" stroke-width="2" stroke-miterlimit="10" stroke-linecap="round"/>
<path opacity="0.7" d="M151.919 331.028V337.361" stroke="white" stroke-width="2" stroke-miterlimit="10" stroke-linecap="round"/>
<path opacity="0.7" d="M154.106 328.841V334.08" stroke="white" stroke-width="2" stroke-miterlimit="10" stroke-linecap="round"/>
<path d="M153.844 322.781C154.161 322.57 154.53 322.448 154.911 322.43C155.292 322.411 155.671 322.496 156.007 322.676C156.344 322.855 156.626 323.122 156.822 323.449C157.019 323.776 157.124 324.15 157.125 324.531C157.125 330.438 152.422 334.911 145.094 334.911C141.598 334.913 138.222 333.636 135.603 331.321C132.984 329.006 131.302 325.813 130.875 322.344C130.843 322.015 130.901 321.684 131.044 321.387C131.186 321.089 131.408 320.837 131.684 320.656C131.961 320.476 132.281 320.375 132.611 320.364C132.941 320.353 133.267 320.432 133.555 320.594C141.43 324.848 148.616 325.395 153.844 322.781Z" fill="#393C54"/>
<path d="M145.094 334.911C148.163 335.011 151.17 334.032 153.592 332.144C151.656 329.814 148.605 329.486 145.094 329.486C141.583 329.486 138.531 329.814 136.606 332.122C139.065 333.934 142.039 334.912 145.094 334.911Z" fill="#F85565"/>
<path opacity="0.2" d="M162.233 294.792L168.063 297.1C168.901 297.438 169.634 297.995 170.184 298.712C170.734 299.43 171.082 300.282 171.191 301.18L171.344 302.733" stroke="#515570" stroke-linecap="round" stroke-linejoin="round"/>
<path opacity="0.2" d="M125.997 296.531L123.033 296.63C122.133 296.732 121.278 297.074 120.556 297.62C119.834 298.167 119.273 298.898 118.931 299.736L118.341 301.18" stroke="#515570" stroke-linecap="round" stroke-linejoin="round"/>
<g clip-path="url(#clip0_45_485)">
<path d="M209.115 213.692C221.907 211.712 230.672 199.737 228.692 186.945C226.712 174.153 214.737 165.388 201.945 167.368C189.153 169.348 180.388 181.323 182.368 194.115C184.348 206.907 196.323 215.672 209.115 213.692Z" fill="#00ADFE"/>
<path opacity="0.3" d="M208.398 209.059C218.632 207.475 225.643 197.895 224.059 187.662C222.475 177.428 212.895 170.417 202.662 172.001C192.428 173.585 185.417 183.165 187.001 193.398C188.585 203.631 198.165 210.643 208.398 209.059Z" fill="#356CB6"/>
<path d="M209.115 213.692C215.095 212.773 220.486 209.569 224.152 204.755C222.425 196.156 219.315 183.57 214.776 176.489C212.259 172.563 207.453 170.421 202.535 171.182C197.617 171.943 193.438 175.357 192.471 179.942C190.75 188.047 191.498 201.133 192.318 209.872C197.225 213.241 203.234 214.607 209.115 213.692Z" fill="#393C54"/>
<path d="M211.635 178.568C209.77 175.505 206.824 174.246 203.238 174.73L202.937 174.776C199.376 175.414 196.948 177.506 196.094 180.974C195.213 184.553 195.53 189.667 198.436 196.103C201.262 202.385 203.729 203.382 207.291 202.902L207.592 202.856C211.133 202.236 213.16 200.523 213.977 193.697C214.816 186.681 213.557 181.714 211.635 178.568Z" fill="white"/>
<path d="M210.105 185.406L211.807 185.143" stroke="#393C54" stroke-width="2.755" stroke-miterlimit="10" stroke-linecap="round"/>
<path d="M208.701 199.526C207.576 199.874 206.405 200.055 205.227 200.063C204.725 200.011 204.195 199.781 204.112 199.248C204.03 198.715 204.448 198.354 204.928 198.133C206.032 197.698 207.219 197.514 208.402 197.596C208.888 197.643 209.434 197.879 209.517 198.411C209.599 198.944 209.157 199.329 208.701 199.526Z" fill="#393C54"/>
<path d="M212.146 187.178C211.437 187.463 210.66 187.533 209.912 187.377" stroke="#393C54" stroke-width="1.105" stroke-miterlimit="10" stroke-linecap="round"/>
<path d="M209.998 190.234C209.984 189.916 210.088 189.604 210.29 189.357C210.492 189.111 210.777 188.948 211.092 188.899C211.407 188.851 211.728 188.92 211.995 189.093C212.262 189.267 212.455 189.533 212.538 189.84C212.648 190.547 212.117 195.57 211.267 195.701C210.852 195.75 210.105 190.925 209.998 190.234Z" fill="#A7AECE"/>
<path d="M208.784 182.516C208.836 182.855 209.022 183.16 209.299 183.363C209.576 183.566 209.922 183.65 210.262 183.598C210.601 183.545 210.906 183.36 211.108 183.083C211.311 182.806 211.396 182.459 211.343 182.12C211.234 181.417 209.751 178.445 209.048 178.554C208.345 178.663 208.676 181.817 208.784 182.516Z" fill="#A7AECE"/>
<path d="M197.918 187.293L199.62 187.029" stroke="#393C54" stroke-width="2.755" stroke-miterlimit="10" stroke-linecap="round"/>
<path d="M200.401 188.857C199.711 189.237 198.921 189.399 198.137 189.322" stroke="#393C54" stroke-width="1.105" stroke-miterlimit="10" stroke-linecap="round"/>
<path d="M200.006 183.875C200.058 184.214 199.974 184.561 199.771 184.838C199.568 185.115 199.263 185.3 198.924 185.353C198.585 185.405 198.238 185.321 197.961 185.118C197.684 184.915 197.499 184.61 197.446 184.271C197.337 183.568 197.853 180.287 198.556 180.178C199.258 180.069 199.897 183.176 200.006 183.875Z" fill="#A7AECE"/>
<path d="M201.181 191.598C201.098 191.291 200.905 191.025 200.638 190.851C200.371 190.678 200.05 190.609 199.735 190.657C199.421 190.706 199.135 190.869 198.933 191.115C198.731 191.361 198.627 191.673 198.641 191.992C198.751 192.698 200.775 197.326 201.624 197.194C202.035 197.115 201.288 192.289 201.181 191.598Z" fill="#A7AECE"/>
<path d="M208.805 200.427C208.878 200.898 208.165 201.399 207.235 201.543C206.304 201.687 205.473 201.421 205.4 200.954C205.363 200.714 206.156 200.73 207.086 200.586C208.017 200.442 208.768 200.187 208.805 200.427Z" fill="#A7AECE"/>
<path opacity="0.2" d="M211.635 178.568C211.081 177.635 210.353 176.817 209.491 176.157C210.668 180.054 211.147 185.245 211.468 192.397C211.802 199.896 208.447 202.075 204.795 202.917C205.627 203.039 206.472 203.033 207.302 202.9L207.604 202.854C211.144 202.235 213.172 200.521 213.989 193.695C214.816 186.681 213.557 181.714 211.635 178.568Z" fill="#393C54"/>
</g>
<g clip-path="url(#clip1_45_485)">
<path d="M160.413 79.243C170.659 77.7397 177.746 68.2153 176.243 57.9697C174.74 47.724 165.215 40.6369 154.97 42.1402C144.724 43.6435 137.637 53.1679 139.14 63.4136C140.643 73.6592 150.168 80.7463 160.413 79.243Z" fill="#00ADFE"/>
<path opacity="0.3" d="M159.869 75.5327C168.066 74.3301 173.735 66.7106 172.533 58.5141C171.33 50.3175 163.71 44.6479 155.514 45.8505C147.317 47.0532 141.648 54.6727 142.85 62.8692C144.053 71.0657 151.673 76.7353 159.869 75.5327Z" fill="white"/>
<path d="M171.942 60.1042C171.837 59.3909 171.593 58.7053 171.223 58.0864C170.853 57.4676 170.365 56.9276 169.787 56.4975C169.208 56.0673 168.551 55.7553 167.852 55.5793C167.153 55.4033 166.426 55.3669 165.713 55.4719C165.312 55.5323 164.92 55.6354 164.542 55.7795C163.877 54.7313 162.982 53.848 161.925 53.1966C160.868 52.5453 159.677 52.1428 158.442 52.0197C157.207 51.8967 155.96 52.0562 154.795 52.4863C153.631 52.9164 152.579 53.6058 151.72 54.5023C150.83 54.2272 149.881 54.2012 148.977 54.4272C148.073 54.6532 147.248 55.1224 146.591 55.7841C145.935 56.4457 145.472 57.2744 145.254 58.1804C145.035 59.0863 145.068 60.0349 145.351 60.9231C144.847 61.1037 144.408 61.4275 144.086 61.8546C143.764 62.2817 143.574 62.7934 143.54 63.327C143.505 63.8606 143.627 64.3927 143.89 64.8579C144.154 65.3232 144.548 65.7013 145.023 65.9457C144.741 67.128 144.793 68.3654 145.173 69.52C145.553 70.6745 146.247 71.7008 147.176 72.4844C148.105 73.268 149.234 73.7782 150.436 73.9581C151.638 74.1379 152.866 73.9804 153.984 73.5031C154.271 74.05 154.696 74.5126 155.217 74.8452C155.738 75.1778 156.336 75.3688 156.953 75.3994C157.57 75.4301 158.185 75.2993 158.736 75.0199C159.287 74.7406 159.756 74.3223 160.096 73.8065C161.168 74.3897 162.381 74.6627 163.599 74.5947C164.817 74.5267 165.992 74.1205 166.992 73.4216C167.992 72.7227 168.778 71.7589 169.26 70.6384C169.743 69.5178 169.904 68.2849 169.724 67.0781C169.649 66.5775 169.517 66.0873 169.33 65.6168C170.262 65.0594 171.007 64.2381 171.472 63.2568C171.937 62.2755 172.101 61.1784 171.942 60.1042Z" fill="white"/>
<path opacity="0.1" d="M171.942 60.1042C171.837 59.3909 171.593 58.7053 171.223 58.0864C170.853 57.4676 170.365 56.9276 169.787 56.4975C169.208 56.0673 168.551 55.7553 167.852 55.5793C167.153 55.4033 166.426 55.3669 165.713 55.4719C165.312 55.5323 164.92 55.6354 164.542 55.7795C163.877 54.7313 162.982 53.848 161.925 53.1966C160.868 52.5453 159.677 52.1428 158.442 52.0197C157.207 51.8967 155.96 52.0562 154.795 52.4863C153.631 52.9164 152.579 53.6058 151.72 54.5023C150.83 54.2272 149.881 54.2012 148.977 54.4272C148.073 54.6532 147.248 55.1224 146.591 55.7841C145.935 56.4457 145.472 57.2744 145.254 58.1804C145.035 59.0863 145.068 60.0349 145.351 60.9231C144.847 61.1037 144.408 61.4275 144.086 61.8546C143.764 62.2817 143.574 62.7934 143.54 63.327C143.505 63.8606 143.627 64.3927 143.89 64.8579C144.154 65.3232 144.548 65.7013 145.023 65.9457C144.741 67.128 144.793 68.3654 145.173 69.52C145.553 70.6745 146.247 71.7008 147.176 72.4844C148.105 73.268 149.234 73.7782 150.436 73.9581C151.638 74.1379 152.866 73.9804 153.984 73.5031C154.271 74.05 154.696 74.5126 155.217 74.8452C155.738 75.1778 156.336 75.3688 156.953 75.3994C157.57 75.4301 158.185 75.2993 158.736 75.0199C159.287 74.7406 159.756 74.3223 160.096 73.8065C161.168 74.3897 162.381 74.6627 163.599 74.5947C164.817 74.5267 165.992 74.1205 166.992 73.4216C167.992 72.7227 168.778 71.7589 169.26 70.6384C169.743 69.5178 169.904 68.2849 169.724 67.0781C169.649 66.5775 169.517 66.0873 169.33 65.6168C170.262 65.0594 171.007 64.2381 171.472 63.2568C171.937 62.2755 172.101 61.1784 171.942 60.1042Z" fill="#393C54"/>
<path d="M170.682 57.6769C170.639 57.5317 170.577 57.3481 170.502 57.1411C169.898 56.4969 169.147 56.0086 168.313 55.7179C167.478 55.4272 166.586 55.3428 165.712 55.4719C165.312 55.5322 164.92 55.6353 164.542 55.7795C163.877 54.7312 162.982 53.848 161.925 53.1966C160.868 52.5452 159.677 52.1428 158.442 52.0197C157.207 51.8966 155.96 52.0562 154.795 52.4863C153.631 52.9164 152.579 53.6057 151.72 54.5022C150.83 54.2271 149.881 54.2012 148.977 54.4272C148.073 54.6531 147.248 55.1224 146.591 55.784C145.935 56.4456 145.472 57.2744 145.254 58.1803C145.035 59.0863 145.068 60.0348 145.351 60.923C144.914 61.0807 144.525 61.3462 144.219 61.6949C143.913 62.0436 143.7 62.464 143.6 62.9171C143.938 63.5694 144.498 64.0796 145.179 64.356C145.86 64.6324 146.617 64.6569 147.314 64.4251C147.206 65.6243 147.488 66.8264 148.118 67.8524C148.749 68.8784 149.693 69.6736 150.812 70.1196C151.93 70.5656 153.163 70.6385 154.326 70.3276C155.489 70.0167 156.521 69.3386 157.268 68.3941C158.056 69.3001 159.116 69.9263 160.29 70.179C161.463 70.4316 162.687 70.2971 163.778 69.7955C164.869 69.2939 165.768 68.4523 166.34 67.3968C166.912 66.3413 167.127 65.1288 166.952 63.941C166.898 63.5809 166.809 63.2269 166.686 62.884C167.327 62.9043 167.964 62.7717 168.544 62.4972C169.123 62.2226 169.629 61.8141 170.02 61.3053C170.41 60.7965 170.674 60.202 170.789 59.5711C170.904 58.9401 170.868 58.2909 170.682 57.6769Z" fill="white"/>
<path d="M165.695 43.7251C164.013 42.9334 162.223 42.3976 160.383 42.1356C157.604 44.1895 155.329 46.8482 153.729 49.9108C152.129 52.9734 151.246 56.3596 151.148 59.8135L155.294 59.9379C155.39 56.5452 156.409 53.2428 158.241 50.386C160.074 47.5293 162.651 45.2263 165.695 43.7251Z" fill="#F85565"/>
<path d="M165.7 43.7401C162.663 45.2471 160.092 47.5492 158.259 50.4015C156.427 53.2538 155.402 56.5495 155.294 59.9379L159.444 60.0618C159.535 56.9799 160.603 54.0067 162.495 51.5718C164.387 49.1369 167.003 47.3663 169.967 46.5157C168.677 45.4008 167.242 44.467 165.7 43.7401Z" fill="#F8DC25"/>
<path d="M173.201 50.1503C172.285 48.8046 171.198 47.5838 169.967 46.5187C167.001 47.3645 164.381 49.1338 162.489 51.5698C160.597 54.0057 159.53 56.9815 159.444 60.0649L163.594 60.1888C163.661 57.754 164.585 55.4211 166.203 53.6003C167.821 51.7795 170.029 50.5874 172.439 50.2336C172.689 50.1938 172.944 50.169 173.201 50.1503Z" fill="#4BC190"/>
<path opacity="0.1" d="M163.593 60.1858C163.63 58.8336 163.931 57.5018 164.48 56.2655C163.645 55.8227 162.681 55.6854 161.755 55.8772C160.828 56.069 159.998 56.5779 159.407 57.3162C158.404 56.7368 157.235 56.5122 156.089 56.6787L155.987 56.6936C155.729 56.1033 155.335 55.5831 154.835 55.1762C154.336 54.7692 153.747 54.4875 153.117 54.3542C152.754 54.2711 152.382 54.2396 152.01 54.2608C151.502 56.0652 151.217 57.9251 151.162 59.7989L155.294 59.9379L159.444 60.0619L163.593 60.1858Z" fill="#393C54"/>
<path d="M162.255 78.878C163.285 78.62 164.291 78.2748 165.262 77.8461L163.183 63.676L160.091 64.1296L162.255 78.878Z" fill="#356CB6"/>
<path d="M152.766 78.7859C153.828 79.0754 154.914 79.2702 156.01 79.368L153.907 65.0371L150.815 65.4907L152.766 78.7859Z" fill="#356CB6"/>
<path d="M163.167 57.1119C162.806 57.0334 162.432 57.0272 162.068 57.0935C161.704 57.1597 161.356 57.2972 161.045 57.4981C160.734 57.6989 160.466 57.9591 160.256 58.2638C160.046 58.5686 159.898 58.9117 159.821 59.2737C159.258 58.598 158.483 58.1332 157.622 57.9554C156.761 57.7776 155.866 57.8974 155.082 58.2951C155.07 57.7094 154.876 57.1418 154.527 56.6716C154.178 56.2014 153.69 55.852 153.133 55.6723C152.575 55.4926 151.975 55.4914 151.417 55.669C150.859 55.8466 150.37 56.1941 150.019 56.663C149.667 57.1318 149.471 57.6987 149.458 58.2844C149.444 58.87 149.614 59.4453 149.943 59.9298C150.273 60.4144 150.745 60.784 151.294 60.9872C151.844 61.1903 152.443 61.2168 153.008 61.0629C152.804 62.0737 153.01 63.1242 153.581 63.9832C154.152 64.8421 155.04 65.4393 156.051 65.6432C157.062 65.8471 158.112 65.6411 158.971 65.0706C159.83 64.5 160.427 63.6116 160.631 62.6007C160.678 62.3968 160.709 62.1895 160.723 61.9808C161.047 62.2626 161.43 62.4667 161.845 62.5775C162.259 62.6883 162.693 62.7028 163.114 62.62C163.535 62.5371 163.932 62.3591 164.273 62.0995C164.615 61.8399 164.892 61.5056 165.085 61.1222C165.277 60.7388 165.379 60.3165 165.383 59.8875C165.388 59.4586 165.294 59.0343 165.109 58.6473C164.923 58.2603 164.652 57.9207 164.316 57.6546C163.979 57.3885 163.587 57.2028 163.167 57.1119Z" fill="white"/>
<path d="M158.673 63.0743C158.721 63.4023 158.897 63.6978 159.163 63.8957C159.429 64.0936 159.763 64.1778 160.091 64.1296L163.183 63.676" stroke="#515570" stroke-linecap="round" stroke-linejoin="round"/>
<path d="M154.861 63.6338C154.909 63.9618 154.825 64.2955 154.627 64.5614C154.429 64.8274 154.133 65.0039 153.805 65.052L150.815 65.4907" stroke="#515570" stroke-linecap="round" stroke-linejoin="round"/>
<path d="M155.481 70.4913C155.44 70.4949 155.399 70.4904 155.36 70.478C155.321 70.4656 155.284 70.4456 155.253 70.4191C155.221 70.3926 155.195 70.3601 155.177 70.3236C155.158 70.2871 155.146 70.2472 155.143 70.2062C155.125 69.5517 155.348 68.9135 155.769 68.4123C156.19 67.9111 156.781 67.5818 157.428 67.4867C158.076 67.3917 158.736 67.5375 159.284 67.8966C159.831 68.2556 160.228 68.803 160.399 69.435C160.407 69.4757 160.408 69.5178 160.4 69.5586C160.392 69.5995 160.376 69.6384 160.353 69.673C160.329 69.7076 160.3 69.7372 160.265 69.7601C160.23 69.7829 160.191 69.7987 160.15 69.8063L155.481 70.4913Z" fill="#393C54"/>
<path d="M159.594 69.8879C159.415 69.5329 159.128 69.2432 158.776 69.0599C158.423 68.8766 158.021 68.809 157.628 68.8667C157.234 68.9244 156.869 69.1045 156.584 69.3815C156.298 69.6584 156.107 70.0181 156.038 70.4096L159.594 69.8879Z" fill="#F85565"/>
<path d="M151.121 76.1845C151.145 76.3485 151.103 76.5154 151.004 76.6484C150.905 76.7813 150.757 76.8696 150.593 76.8936C150.429 76.9177 150.263 76.8756 150.13 76.7767C149.997 76.6777 149.908 76.53 149.884 76.366C149.834 76.0259 150.008 75.2708 150.348 75.2209C150.688 75.171 151.071 75.8444 151.121 76.1845Z" fill="#356CB6"/>
<path d="M158.539 77.9388C158.563 78.1028 158.521 78.2696 158.422 78.4026C158.323 78.5356 158.175 78.6238 158.011 78.6479C157.847 78.672 157.68 78.6299 157.547 78.5309C157.414 78.432 157.326 78.2843 157.302 78.1203C157.252 77.7801 157.422 77.0255 157.766 76.9752C158.109 76.9248 158.489 77.5987 158.539 77.9388Z" fill="#356CB6"/>
<path d="M160.642 76.4963C160.666 76.6603 160.624 76.8271 160.525 76.9601C160.426 77.0931 160.279 77.1813 160.115 77.2054C159.951 77.2295 159.784 77.1874 159.651 77.0884C159.518 76.9895 159.429 76.8418 159.405 76.6778C159.355 76.3376 159.529 75.5826 159.869 75.5327C160.209 75.4828 160.592 76.1562 160.642 76.4963Z" fill="#356CB6"/>
<path d="M167.305 75.5186C167.329 75.6826 167.287 75.8495 167.188 75.9825C167.089 76.1154 166.942 76.2037 166.778 76.2277C166.614 76.2518 166.447 76.2097 166.314 76.1108C166.181 76.0118 166.093 75.8641 166.068 75.7001C166.019 75.36 166.192 74.6049 166.532 74.555C166.872 74.5051 167.255 75.1785 167.305 75.5186Z" fill="#356CB6"/>
</g>
<path d="M269.052 291.311C284.572 291.951 297.672 279.889 298.311 264.369C298.951 248.849 286.889 235.749 271.369 235.109C255.849 234.469 242.749 246.532 242.109 262.052C241.469 277.572 253.532 290.672 269.052 291.311Z" fill="#FFD8C9"/>
<path opacity="0.3" d="M269.283 285.691C281.699 286.203 292.179 276.553 292.691 264.137C293.203 251.721 283.553 241.241 271.137 240.729C258.721 240.218 248.241 249.868 247.729 262.284C247.218 274.699 256.868 285.179 269.283 285.691Z" fill="white"/>
<path d="M282.922 265.78C284.973 265.864 286.704 264.27 286.789 262.219C286.873 260.168 285.279 258.436 283.228 258.352C281.177 258.267 279.445 259.861 279.361 261.913C279.276 263.964 280.87 265.695 282.922 265.78Z" fill="#8F5653"/>
<path d="M269.052 291.311C275.93 291.603 282.674 289.353 287.999 284.99L287.055 282.502C286.331 280.595 284.27 279.272 281.895 279.174L257.251 278.158C254.876 278.06 252.713 279.219 251.835 281.05L250.69 283.452C255.637 288.238 262.173 291.036 269.052 291.311Z" fill="#393C54"/>
<path d="M275.83 279.735C275.761 281.404 275.032 282.976 273.804 284.107C272.576 285.238 270.949 285.835 269.28 285.766C267.612 285.697 266.04 284.969 264.909 283.741C263.778 282.512 263.181 280.885 263.25 279.217C263.346 276.875 266.123 277.811 269.602 277.954C273.082 278.098 275.927 277.37 275.83 279.735Z" fill="#FF8475"/>
<path d="M269.81 272.929L269.544 279.368" stroke="#8F5653" stroke-width="10" stroke-miterlimit="10" stroke-linecap="round"/>
<path d="M257.331 264.725C259.382 264.809 261.113 263.215 261.198 261.164C261.282 259.113 259.688 257.381 257.637 257.297C255.586 257.212 253.854 258.807 253.77 260.858C253.685 262.909 255.28 264.64 257.331 264.725Z" fill="#8F5653"/>
<path d="M269.624 277.434C267.882 277.363 266.171 276.949 264.589 276.216C263.007 275.484 261.585 274.447 260.404 273.164C259.223 271.881 258.306 270.379 257.706 268.742C257.106 267.105 256.835 265.366 256.907 263.624L257.267 254.903C257.412 251.385 258.948 248.069 261.538 245.684C264.128 243.299 267.559 242.041 271.077 242.186C274.595 242.331 277.911 243.868 280.296 246.457C282.681 249.047 283.939 252.479 283.794 255.997L283.434 264.717C283.363 266.459 282.949 268.17 282.217 269.752C281.484 271.334 280.447 272.756 279.164 273.937C277.882 275.118 276.379 276.035 274.742 276.635C273.105 277.235 271.366 277.507 269.624 277.434Z" fill="#B56B63"/>
<path d="M276.178 262.649C276.954 262.681 277.609 262.078 277.64 261.302C277.672 260.526 277.069 259.871 276.293 259.839C275.517 259.807 274.862 260.41 274.83 261.186C274.798 261.962 275.402 262.617 276.178 262.649Z" fill="#393C54"/>
<path d="M263.532 262.128C264.308 262.16 264.963 261.557 264.995 260.781C265.027 260.005 264.424 259.35 263.648 259.318C262.872 259.286 262.217 259.889 262.185 260.665C262.153 261.441 262.756 262.096 263.532 262.128Z" fill="#393C54"/>
<path opacity="0.4" d="M275.327 257.322L279.795 258.328" stroke="#515570" stroke-linecap="round" stroke-linejoin="round"/>
<path opacity="0.4" d="M265.309 256.909L260.775 257.543" stroke="#515570" stroke-linecap="round" stroke-linejoin="round"/>
<path d="M269.871 261.32L267.477 266.236C267.443 266.306 267.427 266.384 267.43 266.462C267.434 266.54 267.457 266.616 267.497 266.682C267.537 266.749 267.593 266.805 267.66 266.845C267.727 266.884 267.803 266.907 267.881 266.91L272.255 267.09C272.333 267.093 272.41 267.076 272.479 267.042C272.549 267.007 272.609 266.956 272.654 266.893C272.699 266.83 272.727 266.756 272.737 266.679C272.746 266.602 272.737 266.524 272.709 266.452L270.728 261.355C270.695 261.27 270.637 261.197 270.563 261.145C270.489 261.092 270.402 261.062 270.311 261.058C270.22 261.054 270.13 261.077 270.052 261.124C269.974 261.17 269.911 261.238 269.871 261.32Z" fill="#8F5653"/>
<path opacity="0.4" d="M283.794 255.997C283.939 252.479 282.681 249.047 280.296 246.457C277.911 243.868 274.595 242.331 271.077 242.186C267.559 242.041 264.128 243.299 261.538 245.684C258.948 248.069 257.412 251.385 257.267 254.903L257.159 257.512L257.595 257.53C259.407 257.604 261.088 252.452 261.163 250.639L261.159 250.719C262.735 252.548 266.366 253.927 270.647 254.103C275.077 254.286 278.916 253.131 280.552 251.336L280.548 251.439C280.473 253.251 281.724 258.524 283.537 258.599L283.686 258.605L283.794 255.997Z" fill="#8F5653"/>
<path d="M272.887 268.95C272.939 268.953 272.991 268.966 273.038 268.99C273.084 269.014 273.126 269.047 273.158 269.088C273.191 269.129 273.215 269.176 273.228 269.227C273.242 269.278 273.244 269.331 273.235 269.382C273.199 270.252 272.82 271.071 272.179 271.661C271.539 272.25 270.691 272.561 269.822 272.526C268.952 272.49 268.132 272.11 267.543 271.47C266.953 270.83 266.642 269.982 266.678 269.112C266.674 269.06 266.68 269.007 266.698 268.958C266.715 268.908 266.743 268.863 266.779 268.825C266.815 268.787 266.859 268.757 266.908 268.737C266.956 268.718 267.008 268.708 267.061 268.71L272.887 268.95Z" fill="white"/>
<path opacity="0.4" d="M267.992 273.44L271.579 273.588" stroke="#515570" stroke-linecap="round" stroke-linejoin="round"/>
<g clip-path="url(#clip2_45_485)">
<path d="M245.043 127.75C270.777 130.574 293.927 112.001 296.75 86.2671C299.574 60.5331 281.001 37.3828 255.267 34.5594C229.533 31.736 206.383 50.3086 203.559 76.0425C200.736 101.776 219.309 124.927 245.043 127.75Z" fill="#4BC190"/>
<path opacity="0.3" d="M246.065 118.431C266.652 120.69 285.172 105.832 287.431 85.2446C289.69 64.6575 274.832 46.1373 254.245 43.8785C233.658 41.6198 215.137 56.4779 212.879 77.065C210.62 97.6521 225.478 116.172 246.065 118.431Z" fill="#356CB6"/>
<path d="M275.802 98.1156C274.978 98.0252 274.224 97.6112 273.705 96.9647C273.186 96.3183 272.946 95.4922 273.036 94.6684L276.785 60.4984C276.84 57.9595 275.942 55.4921 274.267 53.5829C272.592 51.6736 270.263 50.4609 267.739 50.184C265.215 49.907 262.678 50.5858 260.629 52.0866C258.581 53.5874 257.169 55.8012 256.672 58.2916L257.241 96.0792C256.97 98.5508 257.692 101.029 259.248 102.968C260.804 104.908 263.066 106.15 265.538 106.421C268.01 106.692 270.488 105.97 272.427 104.414C274.366 102.858 275.608 100.596 275.879 98.1241L275.802 98.1156Z" fill="#393C54"/>
<path d="M260.231 68.1135C264.52 68.584 268.378 65.4886 268.849 61.1996C269.32 56.9106 266.224 53.0522 261.935 52.5817C257.646 52.1111 253.788 55.2065 253.317 59.4955C252.847 63.7845 255.942 67.6429 260.231 68.1135Z" fill="#F85565"/>
<path d="M252.446 53.1123C258.503 53.7769 264.048 56.8206 267.862 61.5738C271.675 66.3269 273.444 72.4003 272.779 78.4577L272.258 83.2104C272.011 85.4637 270.878 87.5264 269.11 88.9449C267.342 90.3634 265.083 91.0214 262.83 90.7742L234.143 87.6267C231.889 87.3795 229.827 86.2473 228.408 84.4792C226.99 82.7111 226.332 80.4519 226.579 78.1987L227.1 73.4459C227.765 67.3885 230.809 61.8432 235.562 58.0299C240.315 54.2166 246.388 52.4477 252.446 53.1123Z" fill="#393C54"/>
<path d="M265.798 96.0277C268.556 96.3303 271.037 94.3399 271.339 91.5821C271.642 88.8243 269.652 86.3434 266.894 86.0408C264.136 85.7382 261.655 87.7286 261.352 90.4864C261.05 93.2442 263.04 95.7252 265.798 96.0277Z" fill="#FBC0AA"/>
<path d="M245.043 127.75C254.156 128.761 263.365 127.059 271.515 122.858L270.083 116.854C269.713 115.296 268.873 113.889 267.677 112.825C266.481 111.76 264.986 111.088 263.396 110.901L229.265 107.157C227.662 106.981 226.045 107.304 224.634 108.084C223.223 108.863 222.087 110.06 221.384 111.51L219.079 116.256C226.33 122.691 235.404 126.708 245.043 127.75Z" fill="#F8DC25"/>
<path d="M261.781 110.724L230.841 107.33C230.764 111.231 232.149 115.02 234.725 117.952C237.301 120.884 240.88 122.745 244.759 123.171C248.638 123.596 252.536 122.555 255.686 120.252C258.836 117.948 261.01 114.55 261.781 110.724Z" fill="#F2BC0F"/>
<path d="M253.194 110.764C252.99 112.618 252.059 114.315 250.604 115.482C249.15 116.649 247.291 117.19 245.438 116.987C243.584 116.783 241.887 115.852 240.72 114.397C239.553 112.943 239.012 111.084 239.215 109.231C239.641 105.348 242.577 107.242 246.46 107.668C250.343 108.094 253.617 106.905 253.194 110.764Z" fill="white"/>
<path d="M247.355 99.5135L246.183 110.192" stroke="#FBC0AA" stroke-width="6" stroke-linecap="round" stroke-linejoin="round"/>
<path d="M230.106 92.1117C232.864 92.4143 235.345 90.4239 235.647 87.6661C235.95 84.9083 233.959 82.4273 231.202 82.1248C228.444 81.8222 225.963 83.8126 225.66 86.5704C225.358 89.3282 227.348 91.8091 230.106 92.1117Z" fill="#FBC0AA"/>
<path d="M246.41 108.126C241.673 107.606 237.336 105.226 234.354 101.509C231.371 97.7915 229.988 93.0419 230.508 88.3047L231.793 76.5937C232.312 71.8566 234.693 67.5199 238.41 64.5377C242.127 61.5555 246.877 60.1721 251.614 60.6919C256.351 61.2116 260.688 63.5919 263.67 67.3091C266.652 71.0263 268.036 75.776 267.516 80.5131L266.228 92.2474C265.703 96.9799 263.321 101.31 259.605 104.288C255.889 107.265 251.143 108.645 246.41 108.126Z" fill="#FFD8C9"/>
<path opacity="0.1" d="M236.368 69.425C237.776 66.793 239.913 64.6222 242.522 63.1719C245.131 61.7216 248.103 61.0532 251.082 61.2466" stroke="white" stroke-width="1.84" stroke-miterlimit="10" stroke-linecap="round"/>
<path d="M269.871 79.2469C270.166 76.5654 269.921 73.8519 269.149 71.267C268.377 68.6821 267.095 66.2783 265.377 64.1978C263.66 62.1174 261.543 60.4025 259.151 59.1547C256.759 57.9068 254.142 57.1514 251.453 56.9332C240.501 56.0381 230.922 64.3319 229.723 75.2585L229.382 78.3649C229.323 78.8731 229.368 79.3879 229.514 79.8782C229.66 80.3685 229.905 80.8239 230.232 81.2168C230.512 81.5591 230.839 81.8596 231.203 82.1093L231.532 79.1116C231.623 78.2878 232.037 77.5336 232.683 77.0149C233.33 76.4963 234.156 76.2557 234.979 76.3461L239.157 76.8045C239.302 76.8214 239.449 76.7975 239.58 76.7356C239.712 76.6737 239.824 76.5762 239.903 76.4541L241.517 73.9197L242.559 76.7455C242.61 76.8819 242.698 77.0013 242.813 77.0903C242.929 77.1793 243.066 77.2344 243.211 77.2493L264.474 79.5822C265.298 79.6726 266.052 80.0865 266.571 80.733C267.09 81.3795 267.33 82.2055 267.24 83.0293L266.908 86.0503C267.318 85.8856 267.703 85.6631 268.05 85.3896C268.455 85.0771 268.792 84.6854 269.041 84.2385C269.29 83.7916 269.446 83.2987 269.498 82.7898L269.871 79.2469Z" fill="#515570"/>
<path d="M254.374 90.4831C254.441 89.8652 254.752 89.2995 255.237 88.9106C255.722 88.5216 256.341 88.3411 256.959 88.4089C257.577 88.4767 258.143 88.7872 258.532 89.2721C258.92 89.7569 259.101 90.3764 259.033 90.9943" stroke="#515570" stroke-linecap="round" stroke-linejoin="round"/>
<path d="M247.84 91.511L247.499 94.6173" stroke="#FBC0AA" stroke-width="2.355" stroke-linecap="round" stroke-linejoin="round"/>
<path opacity="0.2" d="M256.027 84.9427L261.463 85.5392" stroke="#515570" stroke-linecap="round" stroke-linejoin="round"/>
<path d="M242.204 89.1479C242.272 88.53 242.092 87.9105 241.703 87.4256C241.314 86.9408 240.748 86.6303 240.13 86.5625C239.512 86.4947 238.893 86.6751 238.408 87.0641C237.923 87.4531 237.613 88.0188 237.545 88.6367" stroke="#515570" stroke-linecap="round" stroke-linejoin="round"/>
<path opacity="0.2" d="M242.048 83.4092L236.612 82.8127" stroke="#515570" stroke-linecap="round" stroke-linejoin="round"/>
<path d="M253.367 98.7979C253.469 98.8151 253.567 98.8524 253.654 98.9077C253.742 98.9629 253.818 99.035 253.877 99.1198C253.936 99.2046 253.978 99.3003 254.001 99.4014C254.023 99.5026 254.024 99.6071 254.006 99.709C253.636 101.303 252.695 102.707 251.36 103.654C250.025 104.601 248.389 105.025 246.762 104.847C245.135 104.668 243.63 103.899 242.532 102.685C241.434 101.472 240.819 99.8972 240.804 98.2605C240.808 98.1558 240.833 98.053 240.877 97.9581C240.922 97.8633 240.985 97.7784 241.063 97.7085C241.141 97.6386 241.233 97.5852 241.332 97.5513C241.431 97.5174 241.536 97.5038 241.641 97.5113L253.367 98.7979Z" fill="#393C54"/>
<path d="M243.032 103.095C244.076 104.052 245.398 104.652 246.805 104.806C248.213 104.96 249.634 104.662 250.86 103.954C250.17 102.503 248.763 102.222 247.078 102.037C245.393 101.853 243.958 101.821 243.032 103.095Z" fill="#F85565"/>
<path d="M251.216 100.134L243.45 99.2818C243.26 99.2501 243.078 99.1805 242.916 99.0771C242.753 98.9738 242.613 98.8387 242.503 98.6801C242.394 98.5214 242.318 98.3424 242.279 98.1536C242.24 97.9648 242.239 97.7702 242.277 97.5812L252.761 98.7314C252.757 98.9266 252.713 99.1189 252.632 99.2966C252.551 99.4742 252.435 99.6335 252.29 99.7648C252.146 99.896 251.976 99.9964 251.791 100.06C251.607 100.123 251.411 100.148 251.216 100.134Z" fill="white"/>
</g>
<path d="M94 200.25C125.066 200.25 150.25 175.066 150.25 144C150.25 112.934 125.066 87.75 94 87.75C62.934 87.75 37.75 112.934 37.75 144C37.75 175.066 62.934 200.25 94 200.25Z" fill="#F85565"/>
<path opacity="0.2" d="M94 189C118.853 189 139 168.853 139 144C139 119.147 118.853 99 94 99C69.1472 99 49 119.147 49 144C49 168.853 69.1472 189 94 189Z" fill="white"/>
<path d="M117.437 132.141L129.306 146.034C129.6 146.606 129.742 147.243 129.719 147.885C129.696 148.526 129.509 149.152 129.175 149.7C128.841 150.249 128.371 150.703 127.811 151.018C127.252 151.333 126.62 151.499 125.978 151.5H104.941L101.191 129.938L117.437 132.141Z" fill="#4BC190"/>
<path opacity="0.3" d="M117.437 132.141L129.306 146.034C129.6 146.606 129.742 147.243 129.719 147.885C129.696 148.526 129.509 149.152 129.175 149.7C128.841 150.249 128.371 150.703 127.811 151.018C127.252 151.333 126.62 151.499 125.978 151.5H104.941L101.191 129.938L117.437 132.141Z" fill="#356CB6"/>
<path d="M118.225 157.472C122.108 157.472 125.256 154.324 125.256 150.441C125.256 146.557 122.108 143.409 118.225 143.409C114.342 143.409 111.194 146.557 111.194 150.441C111.194 154.324 114.342 157.472 118.225 157.472Z" fill="#FBC0AA"/>
<path d="M94 200.25C106.797 200.265 119.214 195.898 129.184 187.875L127.309 182.691C125.875 179.156 121.825 176.812 117.334 176.812H70.6656C66.175 176.812 62.1625 179.166 60.6531 182.7L58.7781 187.884C68.7596 195.912 81.1909 200.276 94 200.25Z" fill="#356CB6"/>
<path d="M103.619 179.494C103.619 184.8 99.3063 188.166 94 188.166C88.6938 188.166 84.3813 184.8 84.3813 179.494C84.3813 174.187 88.6938 176.287 94 176.287C99.3063 176.287 103.619 174.178 103.619 179.494Z" fill="white"/>
<path d="M94 167.325V178.575" stroke="#FBC0AA" stroke-width="7" stroke-linecap="round" stroke-linejoin="round"/>
<path d="M69.775 157.472C73.6582 157.472 76.8062 154.324 76.8062 150.441C76.8062 146.557 73.6582 143.409 69.775 143.409C65.8917 143.409 62.7437 146.557 62.7437 150.441C62.7437 154.324 65.8917 157.472 69.775 157.472Z" fill="#FBC0AA"/>
<path d="M94 175.875C90.6999 175.876 87.4318 175.227 84.3829 173.964C81.3339 172.701 78.5639 170.849 76.2312 168.515C73.8985 166.18 72.0489 163.409 70.7883 160.359C69.5277 157.309 68.8807 154.041 68.8844 150.741V141.722C68.8844 135.061 71.5305 128.672 76.2406 123.962C80.9507 119.252 87.3389 116.606 94 116.606C100.661 116.606 107.049 119.252 111.759 123.962C116.47 128.672 119.116 135.061 119.116 141.722V150.741C119.119 154.041 118.472 157.309 117.212 160.359C115.951 163.409 114.102 166.18 111.769 168.515C109.436 170.849 106.666 172.701 103.617 173.964C100.568 175.227 97.3002 175.876 94 175.875Z" fill="#FFD8C9"/>
<path d="M94 113.419C96.0711 113.419 97.75 111.74 97.75 109.669C97.75 107.598 96.0711 105.919 94 105.919C91.9289 105.919 90.25 107.598 90.25 109.669C90.25 111.74 91.9289 113.419 94 113.419Z" fill="#4BC190"/>
<path opacity="0.3" d="M94 113.419C96.0711 113.419 97.75 111.74 97.75 109.669C97.75 107.598 96.0711 105.919 94 105.919C91.9289 105.919 90.25 107.598 90.25 109.669C90.25 111.74 91.9289 113.419 94 113.419Z" fill="#356CB6"/>
<path opacity="0.4" d="M103.487 144.787L112.009 144.562" stroke="#515570" stroke-width="0.945" stroke-linecap="round" stroke-linejoin="round"/>
<path opacity="0.4" d="M84.5125 144.787L75.9906 144.562" stroke="#515570" stroke-width="0.945" stroke-linecap="round" stroke-linejoin="round"/>
<path d="M94 149.625V154.312L96.2125 158.091H91.7781" stroke="#FBC0AA" stroke-width="1.5" stroke-linecap="round" stroke-linejoin="round"/>
<path opacity="0.1" d="M81.9531 160.444C84.2002 160.444 86.0219 159.26 86.0219 157.8C86.0219 156.34 84.2002 155.156 81.9531 155.156C79.706 155.156 77.8844 156.34 77.8844 157.8C77.8844 159.26 79.706 160.444 81.9531 160.444Z" fill="#F85565"/>
<path opacity="0.1" d="M106.047 160.444C108.294 160.444 110.116 159.26 110.116 157.8C110.116 156.34 108.294 155.156 106.047 155.156C103.8 155.156 101.978 156.34 101.978 157.8C101.978 159.26 103.8 160.444 106.047 160.444Z" fill="#F85565"/>
<path d="M101.078 162.75C101.202 162.757 101.324 162.789 101.435 162.843C101.547 162.898 101.647 162.974 101.729 163.067C101.811 163.161 101.873 163.269 101.913 163.387C101.952 163.505 101.968 163.629 101.959 163.753C101.727 165.703 100.788 167.501 99.3193 168.805C97.8507 170.109 95.9547 170.83 93.9906 170.83C92.0265 170.83 90.1306 170.109 88.662 168.805C87.1934 167.501 86.254 165.703 86.0219 163.753C86.013 163.628 86.0294 163.502 86.0702 163.383C86.111 163.264 86.1753 163.154 86.2592 163.061C86.3432 162.967 86.4451 162.891 86.559 162.838C86.6728 162.785 86.7962 162.755 86.9219 162.75H101.078Z" fill="#393C54"/>
<path d="M89.3125 169.228C90.6828 170.233 92.338 170.776 94.0375 170.776C95.737 170.776 97.3922 170.233 98.7625 169.228C97.75 167.588 96.0344 167.438 94 167.438C91.9656 167.438 90.25 167.588 89.3125 169.228Z" fill="#F85565"/>
<path d="M94 162.75H92.125V164.625H94V162.75Z" fill="white"/>
<path d="M96.8125 162.75H94.9375V164.625H96.8125V162.75Z" fill="white"/>
<path d="M105.25 153.253C106.803 153.253 108.062 151.994 108.062 150.441C108.062 148.887 106.803 147.628 105.25 147.628C103.697 147.628 102.438 148.887 102.438 150.441C102.438 151.994 103.697 153.253 105.25 153.253Z" fill="#515570"/>
<path d="M82.75 153.253C84.3033 153.253 85.5625 151.994 85.5625 150.441C85.5625 148.887 84.3033 147.628 82.75 147.628C81.1967 147.628 79.9375 148.887 79.9375 150.441C79.9375 151.994 81.1967 153.253 82.75 153.253Z" fill="#515570"/>
<path d="M119.772 140.362V139.687C119.772 125.672 108.794 113.803 94.7781 113.437C91.335 113.336 87.9064 113.925 84.6947 115.171C81.4831 116.416 78.5534 118.292 76.0787 120.688C73.604 123.084 71.6343 125.952 70.286 129.122C68.9376 132.291 68.2379 135.699 68.2281 139.144V140.391C68.2281 140.888 68.4257 141.365 68.7773 141.716C69.1289 142.068 69.6058 142.266 70.1031 142.266H77.0219C78.0295 142.269 79.0209 142.012 79.8998 141.519C80.7787 141.027 81.5151 140.315 82.0375 139.453L84.4 135.525H96.5875C100.712 139.594 105.962 142.256 111.784 142.256H117.822C118.076 142.266 118.329 142.225 118.567 142.134C118.804 142.043 119.021 141.905 119.203 141.728C119.386 141.551 119.53 141.338 119.628 141.104C119.726 140.869 119.775 140.617 119.772 140.362Z" fill="#393C54"/>
<path d="M119.238 137.437C119.496 137.438 119.752 137.385 119.989 137.283C120.226 137.18 120.44 137.029 120.616 136.84C120.792 136.65 120.927 136.427 121.012 136.183C121.098 135.939 121.132 135.68 121.113 135.422C120.119 121.528 108.925 110.109 94.8625 109.687C80.1719 109.247 67.975 121.059 66.925 135.431C66.907 135.688 66.9421 135.946 67.0282 136.189C67.1143 136.432 67.2496 136.654 67.4255 136.843C67.6015 137.031 67.8143 137.181 68.0508 137.283C68.2873 137.386 68.5423 137.438 68.8 137.437H119.238Z" fill="#4BC190"/>
<path opacity="0.4" d="M103.375 137.437C103.9 137.437 104.312 136.5 104.312 135.422C103.825 121.528 101.228 110.109 94.4031 109.687C87.2875 109.247 79.5063 121.059 79 135.431C79 136.5 79.3844 137.437 79.9375 137.437H103.375Z" fill="white"/>
<path d="M100.253 132.75C100.253 137.437 83.3125 137.437 83.3125 132.75C83.3125 130.504 84.2049 128.349 85.7934 126.761C87.3819 125.172 89.5363 124.28 91.7828 124.28C94.0293 124.28 96.1837 125.172 97.7722 126.761C99.3607 128.349 100.253 130.504 100.253 132.75Z" fill="#393C54"/>
<path d="M95.95 128.925C95.4247 128.338 94.7819 127.867 94.0633 127.544C93.3446 127.221 92.5661 127.053 91.7781 127.05H82.6938" stroke="#515570" stroke-width="2" stroke-miterlimit="10" stroke-linecap="round"/>
<path d="M79 132.75H104.781C105.403 132.75 105.999 132.997 106.439 133.436C106.878 133.876 107.125 134.472 107.125 135.094C107.125 135.715 106.878 136.311 106.439 136.751C105.999 137.191 105.403 137.438 104.781 137.438H79C78.7514 137.438 78.5129 137.339 78.3371 137.163C78.1613 136.987 78.0625 136.749 78.0625 136.5V133.688C78.0625 133.439 78.1613 133.2 78.3371 133.025C78.5129 132.849 78.7514 132.75 79 132.75Z" fill="#4BC190"/>
<path opacity="0.3" d="M79 132.75H104.781C105.403 132.75 105.999 132.997 106.439 133.436C106.878 133.876 107.125 134.472 107.125 135.094C107.125 135.715 106.878 136.311 106.439 136.751C105.999 137.191 105.403 137.438 104.781 137.438H79C78.7514 137.438 78.5129 137.339 78.3371 137.163C78.1613 136.987 78.0625 136.749 78.0625 136.5V133.688C78.0625 133.439 78.1613 133.2 78.3371 133.025C78.5129 132.849 78.7514 132.75 79 132.75Z" fill="#356CB6"/>
<path d="M104.003 136.031C104.521 136.031 104.941 135.612 104.941 135.094C104.941 134.576 104.521 134.156 104.003 134.156C103.485 134.156 103.066 134.576 103.066 135.094C103.066 135.612 103.485 136.031 104.003 136.031Z" fill="#393C54"/>
<path d="M100.253 136.031C100.771 136.031 101.191 135.612 101.191 135.094C101.191 134.576 100.771 134.156 100.253 134.156C99.7353 134.156 99.3156 134.576 99.3156 135.094C99.3156 135.612 99.7353 136.031 100.253 136.031Z" fill="#393C54"/>
<path d="M96.5031 136.031C97.0209 136.031 97.4406 135.612 97.4406 135.094C97.4406 134.576 97.0209 134.156 96.5031 134.156C95.9853 134.156 95.5656 134.576 95.5656 135.094C95.5656 135.612 95.9853 136.031 96.5031 136.031Z" fill="#393C54"/>
<path d="M92.7531 136.031C93.2709 136.031 93.6906 135.612 93.6906 135.094C93.6906 134.576 93.2709 134.156 92.7531 134.156C92.2353 134.156 91.8156 134.576 91.8156 135.094C91.8156 135.612 92.2353 136.031 92.7531 136.031Z" fill="#393C54"/>
<path d="M89.0031 136.031C89.5209 136.031 89.9406 135.612 89.9406 135.094C89.9406 134.576 89.5209 134.156 89.0031 134.156C88.4853 134.156 88.0656 134.576 88.0656 135.094C88.0656 135.612 88.4853 136.031 89.0031 136.031Z" fill="#393C54"/>
<path d="M85.2531 136.031C85.7709 136.031 86.1906 135.612 86.1906 135.094C86.1906 134.576 85.7709 134.156 85.2531 134.156C84.7353 134.156 84.3156 134.576 84.3156 135.094C84.3156 135.612 84.7353 136.031 85.2531 136.031Z" fill="#393C54"/>
<path d="M314 215.5C334.711 215.5 351.5 198.711 351.5 178C351.5 157.289 334.711 140.5 314 140.5C293.289 140.5 276.5 157.289 276.5 178C276.5 198.711 293.289 215.5 314 215.5Z" fill="#FF8475"/>
<path d="M345.094 186.919C345.094 183.719 331.169 184.875 314 184.875C296.831 184.875 282.906 183.719 282.906 186.919C282.906 190.119 296.831 198.925 314 198.925C331.169 198.925 345.094 190.119 345.094 186.919Z" fill="#356CB6"/>
<path opacity="0.3" d="M314 149.875C321.293 149.875 328.288 152.772 333.445 157.93C338.603 163.087 341.5 170.082 341.5 177.375V204.875H286.5V177.375C286.5 170.082 289.397 163.087 294.555 157.93C299.712 152.772 306.707 149.875 314 149.875Z" fill="white"/>
<path d="M314 154.988V149.25" stroke="#4BC190" stroke-width="3" stroke-linecap="round" stroke-linejoin="round"/>
<path opacity="0.3" d="M314 154.988V149.25" stroke="#356CB6" stroke-width="3" stroke-miterlimit="10" stroke-linecap="round"/>
<path d="M314 151.594C315.64 151.594 316.969 150.265 316.969 148.625C316.969 146.985 315.64 145.656 314 145.656C312.36 145.656 311.031 146.985 311.031 148.625C311.031 150.265 312.36 151.594 314 151.594Z" fill="#F8DC25"/>
<path d="M314 209.875C309.69 209.875 305.557 208.163 302.51 205.115C299.462 202.068 297.75 197.935 297.75 193.625V170.5C297.75 166.19 299.462 162.057 302.51 159.01C305.557 155.962 309.69 154.25 314 154.25C318.31 154.25 322.443 155.962 325.49 159.01C328.538 162.057 330.25 166.19 330.25 170.5V193.625C330.25 197.935 328.538 202.068 325.49 205.115C322.443 208.163 318.31 209.875 314 209.875Z" fill="#4BC190"/>
<path opacity="0.3" d="M314 209.25C310.925 209.245 307.977 208.021 305.803 205.847C303.629 203.673 302.405 200.725 302.4 197.65V184.6C302.4 178.206 307.606 176.125 314 176.125C320.394 176.125 325.6 178.206 325.6 184.6V197.65C325.595 200.725 324.371 203.673 322.197 205.847C320.023 208.021 317.075 209.245 314 209.25Z" fill="white"/>
<path d="M319.063 193.194C315.697 193.712 312.272 193.712 308.906 193.194C308.437 193.12 308 192.906 307.655 192.579C307.311 192.252 307.073 191.828 306.975 191.362C306.342 188.038 306.107 184.649 306.275 181.269C306.292 180.768 306.466 180.285 306.772 179.888C307.078 179.491 307.501 179.2 307.981 179.056C311.907 177.906 316.08 177.906 320.006 179.056C320.49 179.199 320.917 179.491 321.224 179.89C321.532 180.29 321.705 180.777 321.719 181.281C321.854 184.65 321.61 188.023 320.994 191.337C320.903 191.808 320.668 192.239 320.322 192.572C319.977 192.904 319.537 193.121 319.063 193.194Z" fill="#393C54"/>
<path d="M344.744 185.975C344.744 185.975 340.369 195.894 314 195.894C287.631 195.894 283.256 185.975 283.256 185.975L277.631 187.269C279.686 195.349 284.374 202.514 290.956 207.632C297.538 212.75 305.638 215.528 313.975 215.528C322.312 215.528 330.412 212.75 336.994 207.632C343.576 202.514 348.264 195.349 350.319 187.269L344.744 185.975Z" fill="white"/>
<path opacity="0.1" d="M344.744 185.975C344.744 185.975 340.369 195.894 314 195.894C287.631 195.894 283.256 185.975 283.256 185.975L277.631 187.269C279.686 195.349 284.374 202.514 290.956 207.632C297.538 212.75 305.638 215.528 313.975 215.528C322.312 215.528 330.412 212.75 336.994 207.632C343.576 202.514 348.264 195.349 350.319 187.269L344.744 185.975Z" fill="#356CB6"/>
<path opacity="0.1" d="M314 200.619C287.45 200.619 279.7 190.906 277.95 188.331C280.193 196.161 284.924 203.048 291.428 207.95C297.932 212.853 305.855 215.504 314 215.504C322.145 215.504 330.068 212.853 336.572 207.95C343.076 203.048 347.807 196.161 350.05 188.331C348.3 190.906 340.55 200.619 314 200.619Z" fill="#356CB6"/>
<path d="M314 160.762V164.144" stroke="#393C54" stroke-linecap="round" stroke-linejoin="round"/>
<path d="M317.125 161.387L315.875 164.769" stroke="#393C54" stroke-linecap="round" stroke-linejoin="round"/>
<path d="M319.625 163.262L317.75 165.394" stroke="#393C54" stroke-linecap="round" stroke-linejoin="round"/>
<path d="M310.875 161.387L312.125 164.769" stroke="#393C54" stroke-linecap="round" stroke-linejoin="round"/>
<path d="M308.375 163.262L310.25 165.394" stroke="#393C54" stroke-linecap="round" stroke-linejoin="round"/>
<path d="M314 174.669C317.107 174.669 319.625 172.15 319.625 169.044C319.625 165.937 317.107 163.419 314 163.419C310.893 163.419 308.375 165.937 308.375 169.044C308.375 172.15 310.893 174.669 314 174.669Z" fill="white"/>
<path d="M314 171.7C315.467 171.7 316.656 170.511 316.656 169.044C316.656 167.577 315.467 166.387 314 166.387C312.533 166.387 311.344 167.577 311.344 169.044C311.344 170.511 312.533 171.7 314 171.7Z" fill="#393C54"/>
<path d="M319.625 169.044C319.625 167.552 319.032 166.121 317.977 165.066C316.923 164.011 315.492 163.419 314 163.419C312.508 163.419 311.077 164.011 310.023 165.066C308.968 166.121 308.375 167.552 308.375 169.044C310.136 168.22 312.056 167.792 314 167.792C315.944 167.792 317.864 168.22 319.625 169.044Z" fill="#4BC190"/>
<path opacity="0.3" d="M319.625 169.044C319.625 167.552 319.032 166.121 317.977 165.066C316.923 164.011 315.492 163.419 314 163.419C312.508 163.419 311.077 164.011 310.023 165.066C308.968 166.121 308.375 167.552 308.375 169.044C310.136 168.22 312.056 167.792 314 167.792C315.944 167.792 317.864 168.22 319.625 169.044Z" fill="#356CB6"/>
<path d="M320.994 191.338C321.194 190.269 321.344 189.181 321.463 188.081C320.05 185.95 317.238 185.025 313.994 185.025C310.75 185.025 307.888 185.969 306.494 188.15C306.619 189.244 306.775 190.319 306.988 191.375C307.086 191.84 307.323 192.264 307.668 192.591C308.013 192.918 308.449 193.133 308.919 193.206C312.284 193.725 315.709 193.725 319.075 193.206C319.549 193.131 319.987 192.91 320.331 192.576C320.674 192.241 320.906 191.809 320.994 191.338Z" fill="#F85565"/>
<path opacity="0.3" d="M314 185.025C313.787 185.025 313.588 185.025 313.375 185.025V188.625C313.375 188.791 313.441 188.95 313.558 189.067C313.675 189.184 313.834 189.25 314 189.25C314.166 189.25 314.325 189.184 314.442 189.067C314.559 188.95 314.625 188.791 314.625 188.625V185.044C314.413 185.038 314.206 185.025 314 185.025Z" fill="#515570"/>
<path d="M318.744 191.263C315.597 191.706 312.403 191.706 309.256 191.263C309.147 191.246 309.036 191.254 308.93 191.284C308.825 191.315 308.727 191.368 308.643 191.44C308.56 191.511 308.492 191.6 308.446 191.7C308.4 191.8 308.376 191.909 308.375 192.019V193.038C308.546 193.109 308.724 193.162 308.906 193.194C312.272 193.713 315.697 193.713 319.062 193.194C319.258 193.156 319.448 193.091 319.625 193V192.019C319.624 191.909 319.6 191.8 319.554 191.7C319.508 191.6 319.44 191.511 319.357 191.44C319.273 191.368 319.175 191.315 319.07 191.284C318.964 191.254 318.853 191.246 318.744 191.263Z" fill="white"/>
<path d="M320.006 179.056C316.08 177.906 311.907 177.906 307.981 179.056L307.75 179.144V179.769C307.749 179.944 307.785 180.117 307.856 180.278C307.926 180.438 308.03 180.582 308.159 180.7C308.289 180.818 308.442 180.907 308.608 180.962C308.775 181.017 308.951 181.036 309.125 181.019C312.368 180.725 315.632 180.725 318.875 181.019C319.049 181.036 319.225 181.017 319.392 180.962C319.558 180.907 319.711 180.818 319.841 180.7C319.971 180.582 320.074 180.438 320.144 180.278C320.215 180.117 320.251 179.944 320.25 179.769V179.144C320.171 179.108 320.09 179.079 320.006 179.056Z" fill="white"/>
<path opacity="0.3" d="M300.562 162.688C293.237 170.013 291.5 177.8 291.5 173C291.5 168.2 293.956 163.4 297.619 159.744C301.281 156.088 306.062 153.625 310.875 153.625C315.688 153.625 307.888 155.362 300.562 162.688Z" fill="white"/>
<path d="M334.931 170.081L335.488 171.825L335.763 172.7L336.594 175.319C336.248 175.427 335.942 175.636 335.715 175.918C335.488 176.201 335.35 176.544 335.318 176.905C335.286 177.266 335.362 177.629 335.536 177.946C335.71 178.264 335.975 178.523 336.297 178.69C336.618 178.858 336.982 178.926 337.342 178.886C337.702 178.847 338.043 178.701 338.32 178.468C338.598 178.235 338.8 177.924 338.901 177.576C339.002 177.228 338.997 176.858 338.888 176.512L337.506 172.137L340.125 171.306L340.956 173.925C340.611 174.035 340.306 174.245 340.08 174.528C339.854 174.811 339.718 175.155 339.687 175.516C339.657 175.877 339.734 176.239 339.909 176.556C340.085 176.873 340.35 177.131 340.672 177.297C340.994 177.463 341.358 177.53 341.718 177.49C342.078 177.449 342.417 177.302 342.694 177.068C342.971 176.835 343.172 176.524 343.272 176.176C343.372 175.828 343.367 175.458 343.256 175.112L341.869 170.737L341.075 168.106L334.931 170.081Z" fill="#515570"/>
<defs>
<clipPath id="clip0_45_485">
<rect width="50" height="50" fill="white" transform="translate(177 169.648) rotate(-8.79887)"/>
</clipPath>
<clipPath id="clip1_45_485">
<rect width="40" height="40" fill="white" transform="translate(135 43.8069) rotate(-8.34715)"/>
</clipPath>
<clipPath id="clip2_45_485">
<rect width="100" height="100" fill="white" transform="translate(205.906 26) rotate(6.26123)"/>
</clipPath>
</defs>
</svg>
